<svg width="68" height="60" viewBox="0 0 68 60" fill="none" xmlns="http://www.w3.org/2000/svg">
    <path
        d="M57.3334 53.3333H10.6667V56.6667C10.6667 57.5507 10.3155 58.3986 9.69038 59.0237C9.06526 59.6488 8.21741 60 7.33335 60H4.00002C3.11597 60 2.26812 59.6488 1.643 59.0237C1.01788 58.3986 0.666687 57.5507 0.666687 56.6667V23.3333L8.93336 4.04C9.44777 2.84 10.3032 1.81746 11.3935 1.09927C12.4839 0.381074 13.7611 -0.00115856 15.0667 2.63789e-06H52.9334C54.2378 0.000146707 55.5136 0.38299 56.6026 1.1011C57.6917 1.81922 58.5461 2.84105 59.06 4.04L67.3334 23.3333V56.6667C67.3334 57.5507 66.9822 58.3986 66.3571 59.0237C65.7319 59.6488 64.8841 60 64 60H60.6667C59.7826 60 58.9348 59.6488 58.3097 59.0237C57.6846 58.3986 57.3334 57.5507 57.3334 56.6667V53.3333ZM60.6667 30H7.33335V46.6667H60.6667V30ZM7.92002 23.3333H60.08L52.9367 6.66667H15.0667L7.92002 23.3333ZM15.6667 43.3333C14.3406 43.3333 13.0688 42.8065 12.1312 41.8689C11.1935 40.9312 10.6667 39.6594 10.6667 38.3333C10.6667 37.0073 11.1935 35.7355 12.1312 34.7978C13.0688 33.8601 14.3406 33.3333 15.6667 33.3333C16.9928 33.3333 18.2645 33.8601 19.2022 34.7978C20.1399 35.7355 20.6667 37.0073 20.6667 38.3333C20.6667 39.6594 20.1399 40.9312 19.2022 41.8689C18.2645 42.8065 16.9928 43.3333 15.6667 43.3333ZM52.3334 43.3333C51.0073 43.3333 49.7355 42.8065 48.7978 41.8689C47.8601 40.9312 47.3334 39.6594 47.3334 38.3333C47.3334 37.0073 47.8601 35.7355 48.7978 34.7978C49.7355 33.8601 51.0073 33.3333 52.3334 33.3333C53.6594 33.3333 54.9312 33.8601 55.8689 34.7978C56.8066 35.7355 57.3334 37.0073 57.3334 38.3333C57.3334 39.6594 56.8066 40.9312 55.8689 41.8689C54.9312 42.8065 53.6594 43.3333 52.3334 43.3333Z"
        fill="#DC1637" />
</svg>
